# xmcd
#
# Track frame offsets:
#	150
#	4799
#	17316
#	28879
#	36029
#
# Disc length: 743 seconds
#
# Revision: 1
# Processed by: cddbd v1.5.2PL0 Copyright (c) Steve Scherf et al.
# Submitted via: audiograbber 1.83.01
#
DISCID=2c02e505
DTITLE=Metzgore - Black Hole Eating (Exenterare Incipiat)
DYEAR=2010
DGENRE=Death Metal
TTITLE0=Black Hole Eating
TTITLE1=Cindy and her unicorn
TTITLE2=Dancing over decaying corpses
TTITLE3=Vaginal disembowelment
TTITLE4=Life lines
EXTD=
EXTT0=
EXTT1=
EXTT2=
EXTT3=
EXTT4=
PLAYORDER=
